# xmcd CD database file generated by Grip 3.0.7
# 
# Track frame offsets:
#       150
#       22267
#       43088
#       67053
#       84588
#       102089
#       125576
#       143311
#       163226
#       176298
#       203079
#       219323
# 
# Disc length: 3298 seconds
# 
# Revision: 2
# Processed by: cddbd v1.4PL0 Copyright (c) Steve Scherf et al.
# Submitted via: Grip 3.0.7
# 
DISCID=a60ce00c
DTITLE=Dave Gleason's Wasted Days - Dave Gleason's Wasted Days
DYEAR=2002
DGENRE=Country
TTITLE0=Don't Turn Away
TTITLE1=Flowers Picked
TTITLE2=Can't Do Wrong
TTITLE3=Serge Gaines
TTITLE4=Shit Together
TTITLE5=Soft Show
TTITLE6=Funky String Quartet
TTITLE7=Another Man
TTITLE8=South Virginia Breakdown
TTITLE9=Can't Even Crawl
TTITLE10=Sad Violins
TTITLE11=Country Mile
EXTD=
EXTT0=
EXTT1=
EXTT2=
EXTT3=
EXTT4=
EXTT5=
EXTT6=
EXTT7=
EXTT8=
EXTT9=
EXTT10=
EXTT11=
PLAYORDER=
